<svg width="65" height="64" viewBox="0 0 65 64" fill="none" xmlns="http://www.w3.org/2000/svg">
<circle cx="32.667" cy="32" r="32" fill="#FFF9D9"/>
<mask id="mask0_8222_46360" style="mask-type:alpha" maskUnits="userSpaceOnUse" x="12" y="12" width="41" height="40">
<rect x="12.667" y="12" width="40" height="40" fill="#D9D9D9"/>
</mask>
<g mask="url(#mask0_8222_46360)">
<path d="M30.7029 47.8333C29.861 47.8333 29.065 47.656 28.315 47.3012C27.565 46.9465 26.9379 46.4369 26.4338 45.7725L17.9434 34.7754L18.5588 34.1187C18.9754 33.6743 19.4738 33.4072 20.0538 33.3175C20.6338 33.2275 21.177 33.3375 21.6834 33.6475L25.7446 35.8271V22.6412C25.7446 22.2871 25.8645 21.9901 26.1042 21.7504C26.3436 21.511 26.6406 21.3912 26.995 21.3912C27.3495 21.3912 27.6506 21.511 27.8984 21.7504C28.1461 21.9901 28.27 22.2871 28.27 22.6412V40.2404L23.2667 37.5158L28.4654 44.2916C28.7391 44.6355 29.0724 44.8951 29.4654 45.0704C29.8588 45.2457 30.2713 45.3333 30.7029 45.3333H38.9013C39.9463 45.3333 40.8353 44.9696 41.5684 44.2421C42.3011 43.5143 42.6675 42.628 42.6675 41.5833V35.3012C42.6675 34.729 42.4741 34.2494 42.0871 33.8625C41.6999 33.4755 41.2203 33.2821 40.6484 33.2821H32.2446V30.7821H40.6484C41.9036 30.7821 42.9706 31.2214 43.8492 32.1C44.7281 32.9789 45.1675 34.046 45.1675 35.3012V41.5821C45.1675 43.3093 44.5539 44.783 43.3267 46.0033C42.0998 47.2233 40.6246 47.8333 38.9013 47.8333H30.7029ZM20.5075 26.3912C20.1784 25.8335 19.9272 25.2371 19.7542 24.6021C19.5811 23.9671 19.4946 23.3135 19.4946 22.6412C19.4946 20.5598 20.2243 18.7896 21.6838 17.3304C23.1429 15.871 24.9132 15.1412 26.9946 15.1412C29.0757 15.1412 30.846 15.871 32.3054 17.3304C33.7646 18.7896 34.4942 20.5592 34.4942 22.6392C34.4942 23.3155 34.4077 23.9705 34.2346 24.6041C34.0616 25.2378 33.8106 25.8335 33.4817 26.3912L31.3279 25.1412C31.5502 24.7523 31.7168 24.3565 31.8279 23.9537C31.9391 23.551 31.9946 23.1135 31.9946 22.6412C31.9946 21.2523 31.5085 20.0718 30.5363 19.0996C29.5641 18.1273 28.3835 17.6412 26.9946 17.6412C25.6057 17.6412 24.4252 18.1273 23.4529 19.0996C22.4807 20.0718 21.9946 21.2523 21.9946 22.6412C21.9946 23.1135 22.0502 23.551 22.1613 23.9537C22.2724 24.3565 22.4391 24.7523 22.6613 25.1412L20.5075 26.3912Z" fill="#FF871F"/>
</g>
</svg>
