<svg width="65" height="64" viewBox="0 0 65 64" fill="none" xmlns="http://www.w3.org/2000/svg">
<circle cx="32.333" cy="32" r="32" fill="#F2F2FC"/>
<mask id="mask0_8222_46367" style="mask-type:alpha" maskUnits="userSpaceOnUse" x="12" y="12" width="41" height="40">
<rect x="12.333" y="12" width="40" height="40" fill="#D9D9D9"/>
</mask>
<g mask="url(#mask0_8222_46367)">
<path d="M30.2338 36.5833H34.4322L33.4901 31.3204C34.0134 31.096 34.4348 30.744 34.7543 30.2646C35.0737 29.7849 35.2334 29.2522 35.2334 28.6667C35.2334 27.8675 34.9498 27.1843 34.3826 26.6171C33.8154 26.0499 33.1322 25.7663 32.333 25.7663C31.5338 25.7663 30.8506 26.0499 30.2834 26.6171C29.7162 27.1843 29.4326 27.8675 29.4326 28.6667C29.4326 29.2522 29.5923 29.7849 29.9118 30.2646C30.2312 30.744 30.6526 31.096 31.1759 31.3204L30.2338 36.5833ZM32.333 47.8013C28.7283 46.8182 25.7438 44.6964 23.3797 41.4358C21.0152 38.1753 19.833 34.53 19.833 30.5V20.9104L32.333 16.2308L44.833 20.9104V30.5C44.833 34.53 43.6508 38.1753 41.2863 41.4358C38.9222 44.6964 35.9377 46.8182 32.333 47.8013ZM32.333 45.1667C35.2219 44.25 37.6108 42.4167 39.4997 39.6667C41.3886 36.9167 42.333 33.8611 42.333 30.5V22.625L32.333 18.8908L22.333 22.625V30.5C22.333 33.8611 23.2775 36.9167 25.1663 39.6667C27.0552 42.4167 29.4441 44.25 32.333 45.1667Z" fill="#5F5BA9"/>
</g>
</svg>
